<svg xmlns="http://www.w3.org/2000/svg" id="LINE_TEST" version="1.1" viewBox="0 0 756.9 756.9"><defs><style>.st0{fill:none;stroke:#131313;stroke-linecap:round;stroke-linejoin:round;stroke-width:11px}</style></defs><path pathLength="1" d="M18.8 9.8 9.6 19v18.5L37.3 9.8h18.4L9.6 55.9v18.4L74.1 9.8h18.4L9.6 92.7v18.5L111 9.8h18.4L9.6 129.6V148L147.8 9.8h18.4L9.6 166.4v18.5L184.7 9.8l9.2 9.2 165.8 165.9 9.2-9.2L203.1 9.8h18.4L415 203.3l36.8-36.9 9.2 9.3-119.7 119.7-9.2-9.2 73.7-73.7-9.3-9.2-73.7 73.7-9.2-9.2 73.7-73.7-9.2-9.2-73.7 73.7-9.2-9.2 18.4-18.5L157 74.3l9.2-9.2 156.6 156.6 27.7-27.6L184.7 28.3l-9.3 9.2 156.7 156.6-9.3 9.2L166.2 46.7l-27.6 27.6 156.6 156.6-9.2 9.2L129.4 83.5l-9.2 9.2 221.1 221.1L617.6 37.5l-9.2-9.2-138.2 138.1L332.1 28.3l-9.3 9.2 119.8 119.7-27.6 27.7L295.2 65.1l9.2-9.2L415 166.4l9.2-9.2L304.4 37.5 286 55.9 239.9 9.8h18.5L286 37.5l9.2-9.2-18.4-18.5h18.4l18.4 18.5 9.2-9.3-9.2-9.2h18.5L470.2 148 580.8 37.5l-9.2-9.2-27.7 27.6-9.2-9.2-9.2-9.2-46 46 9.2 9.2 36.8-36.8 9.2 9.2-46 46.1L415 37.5l-9.2 9.2 73.7 73.7-9.3 9.2L350.5 9.8h18.4l27.6 27.7 9.3-9.2-18.5-18.5h18.5L415 19l9.2-9.2h18.4l-18.4 18.5 9.2 9.2L451.8 19l9.2 9.3-18.4 18.4 9.2 9.2 18.4-18.4 9.3 9.2L461 65.1l9.2 9.2 27.7-27.6L461 9.8h18.5l9.2 9.2 9.2-9.2h18.4l-18.4 18.5 9.2 9.2 27.6-27.7h18.5l-18.5 18.5 9.2 9.2L562.4 19l9.2-9.2H590l-9.2 9.2 9.2 9.3 18.4-18.5 18.5 18.5 9.2-9.3-9.2-9.2h36.8l-129 129-211.9 211.9L111 138.8l-9.3 9.2 193.5 193.5-46.1 46L83.3 221.7l9.2-9.2 156.6 156.6 27.7-27.6L92.5 157.2l-9.2 9.2 175.1 175.1-9.3 9.2L64.9 166.4l46.1-46 211.8 211.9 9.3-9.2L111 102 9.6 203.3v18.4l46.1-46 9.2 9.2-55.3 55.2v18.5l64.5-64.5 9.2 9.2L9.6 277v18.4l64.5-64.5 248.7 248.8 9.3-9.2-55.3-55.3 9.2-9.2 55.3 55.2 9.2-9.2-55.3-55.2 18.4-18.5-9.2-9.2-36.8 36.9-9.2-9.2 46-46.1 18.4 18.4L682.1 9.8h18.5l-387 387 46.1 46L654.5 148l36.8 36.9 27.7-27.7-9.2-9.2-18.5 18.4-36.8-36.8-294.8 294.8-27.6-27.6L654.5 74.3l18.4 18.4 46.1-46-9.2-9.2-36.9 36.8-9.2-9.2L719 9.8h18.4L719 28.3l9.2 9.2L746.6 19v18.5l-73.7 73.7-18.4-18.5-304 304.1 9.2 9.2 294.8-294.8 18.4 18.4 73.7-73.7v18.4l-64.5 64.5 9.2 9.2 55.3-55.3v18.5L719 138.8l9.2 9.2 18.4-18.4V148l-55.3 55.3-36.8-36.9-331.7 331.7L74.1 249.4l-9.2 9.2 257.9 257.9 331.7-331.6 36.8 36.8 55.3-55.3v18.5l-55.3 55.2-36.8-36.8L286 571.8l-92.1-92.1-46.1 46 55.3 55.3-55.3 55.3 46.1 46.1 27.6-27.7-9.2-9.2-18.4 18.4-9.2-9.2 27.6-27.6 27.6 27.6-46 46.1L83.3 590.2l9.2-9.2 46.1 46.1 9.2-9.2-18.4-18.5 9.2-9.2 18.4 18.5 27.7-27.7-9.3-9.2-18.4 18.4-9.2-9.2 18.4-18.4-36.8-36.9 55.3-55.2-9.3-9.3-55.2 55.3-9.2-9.2 64.4-64.5L286 553.4l9.2-9.2-119.8-119.8-36.8 36.8-36.9-36.8 9.3-9.2 27.6 27.6 9.2-9.2-36.8-36.8 9.2-9.3 36.8 36.9 9.2-9.2-55.2-55.3 9.2-9.2L304.4 535l9.2-9.3-193.4-193.4-27.7 27.6 18.5 18.4-9.3 9.2-27.6-27.6-9.2 9.2 36.8 36.9-9.2 9.2-46-46.1 27.6-27.6 9.2 9.2 27.7-27.6-55.3-55.3-46.1 46v18.5l46.1-46.1 36.8 36.9-9.2 9.2-27.6-27.7-46.1 46.1v18.4l46.1-46 9.2 9.2-55.3 55.2V406l27.7-27.7 92.1 92.2-9.2 9.2-82.9-82.9-27.7 27.6v18.4l27.7-27.6 73.7 73.7-9.3 9.2-64.4-64.5-27.7 27.6v18.5L37.3 452l110.5 110.6-27.6 27.6-9.2-9.2 18.4-18.4-92.1-92.1-27.7 27.6v18.4l27.7-27.6 9.2 9.2L9.6 535v18.4l46.1-46.1 55.3 55.3-9.3 9.2-46-46.1-46.1 46.1v18.4l46.1-46 9.2 9.2-55.3 55.3v18.4l64.5-64.5 9.2 9.2-73.7 73.7v18.4l64.5-64.5 9.2 9.3-73.7 73.7v18.4l82.9-82.9 9.2 9.2-92.1 92.1v18.4L111 636.3l46 46.1-36.8 36.8-9.2-9.2 27.6-27.6-27.6-27.7-92.2 92.1h18.5l73.7-73.7 9.2 9.3-64.5 64.4h18.4l27.6-27.6 9.3 9.2-18.5 18.4H111l55.2-55.2 9.2 9.2-46 46h18.4l36.9-36.8 9.2 9.2-27.7 27.6h18.5l27.6-27.6-9.2-9.2 285.6-285.6 156.6-156.6-9.2-9.2-387 386.9-36.8-36.8-36.9 36.8-9.2-9.2 46.1-46.1 36.8 36.9 9.3-9.2-92.2-92.2 27.7-27.6 82.9 82.9-9.2 9.2-73.7-73.7-9.2 9.2 82.9 83 386.9-387 9.2 9.2-18.4 18.5 9.2 9.2 18.4-18.5 18.4 18.5 55.3-55.3v18.4L691.3 277l-18.4-18.4L221.5 710l9.2 9.2-27.6 27.6h18.4l27.6-27.6-9.2-9.2 193.5-193.5L672.9 277l18.4 18.4 55.3-55.3v18.5l-55.3 55.2-18.4-18.4-340.8 340.9 18.4 18.4-9.2 9.2-18.5-18.4-9.2 9.2 18.5 18.4-27.7 27.7-9.2-9.2 18.4-18.5-9.2-9.2-46 46.1 9.2 9.2-27.7 27.6h18.5l18.4-18.4 9.2 9.2-9.2 9.2h36.8L276.8 710l9.2-9.2 18.4 18.4 64.5-64.5-18.4-18.4 9.2-9.2 18.4 18.4 9.2-9.2-18.4-18.4 304-304.1 18.4 18.5 55.3-55.3v18.4l-46 46.1 9.2 9.2 36.8-36.9v18.5l-55.3 55.2-18.4-18.4-257.9 258-9.2-9.2 267.1-267.2 18.4 18.4 9.3-9.2-27.7-27.6-285.6 285.6 18.5 18.4-92.2 92.1 18.5 18.4h18.4l-18.4-18.4 340.8-340.9 18.4 18.5 55.3-55.3v18.4L719 396.8l9.2 9.2 18.4-18.5V406l-18.4 18.4-18.4-18.4-202.7 202.7-9.2-9.3 184.2-184.2-9.2-9.2-193.4 193.4 18.4 18.5-73.7 73.7 18.4 18.4-9.2 9.2-27.6-27.6 73.7-73.7-9.3-9.2L368.9 710l9.2 9.2-9.2 9.2-9.2-9.2-9.2 9.2 18.4 18.4h18.4l-9.2-9.2 9.2-9.2 18.5 18.4h18.4L387.3 710l9.2-9.2 46.1 46H461l-18.4-18.4 9.2-9.2 27.7 27.6h18.4l-55.3-55.2 46.1-46.1 9.2 9.2-18.4 18.4 36.8 36.9-9.2 9.2-36.9-36.8-9.2 9.2 46.1 46 27.6-27.6-36.8-36.9 193.4-193.4 9.3-9.2-9.3-9.3-184.2 184.3-9.2-9.2 193.4-193.5 18.5 18.4 9.2-9.2-18.4-18.4 9.2-9.2 18.4 18.4 18.4-18.4v18.4L719 470.5l9.2 9.2 18.4-18.5v18.5l-18.4 18.4-18.4-18.4-9.2 9.2 27.6 27.6 18.4-18.4v18.4l-9.2 9.2 9.2 9.3v18.4l-55.3-55.3-175 175 27.6 27.7 9.3-9.2-18.5-18.5 156.6-156.6 55.3 55.3v18.4L691.3 535 553.2 673.1l18.4 18.5-55.3 55.2h18.4l55.3-55.2-18.4-18.5 119.7-119.7 55.3 55.3v18.4l-55.3-55.3L590 673.1l9.2 9.3 92.1-92.2 55.3 55.3v18.4l-55.3-55.2-138.1 138.1h18.4l119.7-119.7 55.3 55.3v18.4l-55.3-55.3L590 746.8h18.4l82.9-82.9 27.7 27.7-9.2 9.2-18.5-18.4-64.4 64.4h18.4l46-46 9.3 9.2-36.9 36.8h18.4l46.1-46 18.4 18.4v18.4l-18.4-18.4-9.2 9.2-18.4 18.4H719l9.2-9.2 9.2 9.2" class="st0"/></svg>
